<svg xmlns="http://www.w3.org/2000/svg" xmlns:xlink="http://www.w3.org/1999/xlink" width="282" zoomAndPan="magnify" viewBox="0 0 211.5 40.499999" height="54" preserveAspectRatio="xMidYMid meet" version="1.0"><defs><g/></defs><path stroke-linecap="round" transform="matrix(1.173018, 0, 0, 1.173018, 1.042687, 5.867561)" fill="none" stroke-linejoin="round" d="M 10.063756 12.494159 L 3.886449 13.809542 C 3.766566 13.836183 3.643353 13.839513 3.52347 13.819533 C 3.403587 13.796222 3.290364 13.752931 3.187131 13.686329 C 3.083899 13.623058 2.997317 13.539806 2.924055 13.439903 C 2.854123 13.34 2.804172 13.230108 2.777531 13.110225 L 2.241387 10.95899 C 2.174786 10.689253 2.208087 10.436167 2.34129 10.193071 C 2.474493 9.949974 2.670968 9.78347 2.930715 9.693558 L 16.434208 5.254555 " stroke="#000000" stroke-width="2" stroke-opacity="1" stroke-miterlimit="4"/><path stroke-linecap="round" transform="matrix(1.173018, 0, 0, 1.173018, 1.042687, 5.867561)" fill="none" stroke-linejoin="round" d="M 13.560345 11.74822 L 17.892785 10.822457 " stroke="#000000" stroke-width="2" stroke-opacity="1" stroke-miterlimit="4"/><path stroke-linecap="round" transform="matrix(1.173018, 0, 0, 1.173018, 1.042687, 5.867561)" fill="none" stroke-linejoin="round" d="M 16.001297 20.999195 L 12.894328 14.788587 " stroke="#000000" stroke-width="2" stroke-opacity="1" stroke-miterlimit="4"/><path stroke-linecap="round" transform="matrix(1.173018, 0, 0, 1.173018, 1.042687, 5.867561)" fill="none" stroke-linejoin="round" d="M 16.484159 5.940553 C 16.420887 5.684136 16.407567 5.42439 16.447528 5.161313 C 16.487489 4.898236 16.574071 4.65514 16.710605 4.425364 C 16.847138 4.198919 17.020302 4.005774 17.233428 3.84926 C 17.446553 3.689416 17.682989 3.579523 17.939406 3.516251 L 19.028343 3.243184 C 19.158217 3.209883 19.28809 3.203223 19.417963 3.223204 C 19.551167 3.243184 19.67438 3.286475 19.787603 3.356407 C 19.900826 3.423009 19.997398 3.509591 20.07399 3.616154 C 20.153912 3.722716 20.210523 3.8426 20.240494 3.969143 L 21.755683 10.029897 C 21.788983 10.15977 21.795644 10.289643 21.775663 10.419516 C 21.755683 10.54939 21.712392 10.672603 21.64579 10.785826 C 21.575858 10.902379 21.489276 10.995621 21.382713 11.075543 C 21.27615 11.155465 21.159597 11.212077 21.029724 11.242047 L 19.940787 11.515114 C 19.68437 11.578386 19.424623 11.591706 19.161547 11.551745 C 18.89847 11.515114 18.652044 11.425202 18.425598 11.288668 C 18.199152 11.152135 18.006007 10.978971 17.849493 10.765845 C 17.689649 10.55272 17.579757 10.316284 17.516485 10.059867 Z M 16.484159 5.940553 " stroke="#000000" stroke-width="2" stroke-opacity="1" stroke-miterlimit="4"/><path stroke-linecap="round" transform="matrix(1.173018, 0, 0, 1.173018, 1.042687, 5.867561)" fill="none" stroke-linejoin="round" d="M 6.157567 8.634591 L 7.273145 13.090244 " stroke="#000000" stroke-width="2" stroke-opacity="1" stroke-miterlimit="4"/><path stroke-linecap="round" transform="matrix(1.173018, 0, 0, 1.173018, 1.042687, 5.867561)" fill="none" stroke-linejoin="round" d="M 7.999104 20.999195 L 11.106072 14.788587 " stroke="#000000" stroke-width="2" stroke-opacity="1" stroke-miterlimit="4"/><path stroke-linecap="round" transform="matrix(1.173018, 0, 0, 1.173018, 1.042687, 5.867561)" fill="none" stroke-linejoin="round" d="M 13.999916 13.000332 C 13.999916 13.266739 13.949965 13.519825 13.846732 13.766251 C 13.746829 14.009347 13.600306 14.225803 13.413821 14.415618 C 13.227336 14.602103 13.010881 14.745296 12.764454 14.848529 C 12.521358 14.948431 12.264942 14.998383 11.998535 14.998383 C 11.735458 14.998383 11.479042 14.948431 11.235946 14.848529 C 10.989519 14.745296 10.773064 14.602103 10.586579 14.415618 C 10.396764 14.225803 10.253571 14.009347 10.153668 13.766251 C 10.050436 13.519825 10.000484 13.266739 10.000484 13.000332 C 10.000484 12.733925 10.050436 12.480839 10.153668 12.234412 C 10.253571 11.987986 10.396764 11.774861 10.586579 11.585046 C 10.773064 11.398561 10.989519 11.255368 11.235946 11.152135 C 11.479042 11.052232 11.735458 10.998951 11.998535 10.998951 C 12.264942 10.998951 12.521358 11.052232 12.764454 11.152135 C 13.010881 11.255368 13.227336 11.398561 13.413821 11.585046 C 13.600306 11.774861 13.746829 11.987986 13.846732 12.234412 C 13.949965 12.480839 13.999916 12.733925 13.999916 13.000332 Z M 13.999916 13.000332 " stroke="#000000" stroke-width="2" stroke-opacity="1" stroke-miterlimit="4"/><g fill="#000000" fill-opacity="1"><g transform="translate(38.081977, 26.463291)"><g><path d="M 22.90625 4.34375 C 21.1875 5.207031 19.441406 5.347656 17.671875 4.765625 C 15.785156 4.160156 14.164062 2.878906 12.8125 0.921875 C 12.082031 -0.117188 11.457031 -1.328125 10.9375 -2.703125 L 10.171875 -4.71875 L 4.578125 -4.71875 L 3.328125 -1.734375 C 3.242188 -1.523438 3.203125 -1.359375 3.203125 -1.234375 C 3.203125 -1.109375 3.226562 -0.96875 3.28125 -0.8125 C 3.34375 -0.664062 3.460938 -0.53125 3.640625 -0.40625 C 3.828125 -0.289062 4.03125 -0.234375 4.25 -0.234375 L 4.4375 -0.234375 L 4.4375 0 L -0.625 0 L -0.625 -0.234375 L -0.421875 -0.234375 C -0.0546875 -0.234375 0.300781 -0.335938 0.65625 -0.546875 C 1.007812 -0.765625 1.304688 -1.085938 1.546875 -1.515625 L 6.828125 -13.578125 C 6.210938 -14.972656 5.554688 -15.929688 4.859375 -16.453125 C 4.273438 -16.890625 3.71875 -17.109375 3.1875 -17.109375 C 2.664062 -17.109375 2.175781 -17.03125 1.71875 -16.875 L 1.671875 -17.109375 C 2.804688 -17.691406 3.894531 -17.984375 4.9375 -17.984375 C 6.226562 -17.984375 7.390625 -17.476562 8.421875 -16.46875 C 9.429688 -15.476562 10.320312 -14.039062 11.09375 -12.15625 L 14.53125 -3.671875 C 15.832031 -0.460938 17.160156 1.738281 18.515625 2.9375 C 19.066406 3.425781 19.632812 3.765625 20.21875 3.953125 C 20.8125 4.148438 21.304688 4.25 21.703125 4.25 C 22.109375 4.25 22.5 4.195312 22.875 4.09375 Z M 4.984375 -5.734375 L 9.828125 -5.734375 L 8.15625 -10.125 C 8.082031 -10.34375 7.972656 -10.644531 7.828125 -11.03125 C 7.679688 -11.414062 7.585938 -11.6875 7.546875 -11.84375 Z M 4.984375 -5.734375 "/></g></g></g><g fill="#000000" fill-opacity="1"><g transform="translate(54.795666, 26.463291)"><g><path d="M 1.1875 -2.203125 C 1.1875 -3.335938 1.429688 -4.3125 1.921875 -5.125 L 2.140625 -5.125 C 2.117188 -5 2.109375 -4.867188 2.109375 -4.734375 C 2.109375 -3.648438 2.5 -2.695312 3.28125 -1.875 C 4.0625 -1.0625 5.132812 -0.65625 6.5 -0.65625 C 7.550781 -0.65625 8.375 -0.910156 8.96875 -1.421875 C 9.5625 -1.929688 9.859375 -2.570312 9.859375 -3.34375 C 9.859375 -4.269531 9.226562 -5.082031 7.96875 -5.78125 L 3.84375 -8.515625 C 3.019531 -8.984375 2.429688 -9.550781 2.078125 -10.21875 C 1.722656 -10.894531 1.546875 -11.582031 1.546875 -12.28125 C 1.546875 -13.757812 2.015625 -14.898438 2.953125 -15.703125 C 3.890625 -16.515625 5.09375 -16.921875 6.5625 -16.921875 C 7.4375 -16.921875 8.515625 -16.84375 9.796875 -16.6875 L 11.28125 -16.6875 L 10.96875 -13.203125 L 10.734375 -13.203125 C 10.734375 -14.023438 10.425781 -14.679688 9.8125 -15.171875 C 9.207031 -15.671875 8.398438 -15.921875 7.390625 -15.921875 C 6.160156 -15.921875 5.269531 -15.546875 4.71875 -14.796875 C 4.4375 -14.429688 4.296875 -14.019531 4.296875 -13.5625 C 4.296875 -12.800781 4.847656 -12.097656 5.953125 -11.453125 L 10.484375 -8.515625 C 11.898438 -7.691406 12.609375 -6.484375 12.609375 -4.890625 C 12.609375 -3.191406 12.035156 -1.894531 10.890625 -1 C 9.742188 -0.113281 8.222656 0.328125 6.328125 0.328125 C 5.253906 0.328125 4.257812 0.195312 3.34375 -0.0625 C 2.4375 -0.320312 1.769531 -0.671875 1.34375 -1.109375 C 1.238281 -1.410156 1.1875 -1.773438 1.1875 -2.203125 Z M 1.1875 -2.203125 "/></g></g></g><g fill="#000000" fill-opacity="1"><g transform="translate(68.498519, 26.463291)"><g><path d="M 9.6875 -15.625 L 9.6875 -1.703125 C 9.707031 -1.296875 9.863281 -0.945312 10.15625 -0.65625 C 10.445312 -0.375 10.800781 -0.234375 11.21875 -0.234375 L 11.5 -0.234375 L 11.515625 0 L 4.3125 0 L 4.3125 -0.234375 L 4.625 -0.234375 C 5.019531 -0.234375 5.363281 -0.375 5.65625 -0.65625 C 5.945312 -0.945312 6.109375 -1.289062 6.140625 -1.6875 L 6.140625 -15.625 L 2.9375 -15.625 C 2.207031 -15.601562 1.628906 -15.367188 1.203125 -14.921875 C 0.773438 -14.484375 0.5625 -13.910156 0.5625 -13.203125 L 0.5625 -12.921875 L 0.328125 -12.921875 L 0.328125 -17.046875 C 0.546875 -16.953125 0.941406 -16.851562 1.515625 -16.75 C 2.097656 -16.65625 2.632812 -16.609375 3.125 -16.609375 L 12.6875 -16.609375 C 13.457031 -16.628906 14.085938 -16.691406 14.578125 -16.796875 C 15.066406 -16.910156 15.367188 -16.992188 15.484375 -17.046875 L 15.484375 -12.921875 L 15.234375 -12.921875 L 15.234375 -13.203125 C 15.234375 -13.910156 15.019531 -14.484375 14.59375 -14.921875 C 14.175781 -15.367188 13.601562 -15.601562 12.875 -15.625 Z M 9.6875 -15.625 "/></g></g></g><g fill="#000000" fill-opacity="1"><g transform="translate(84.287622, 26.463291)"><g><path d="M 7.53125 -15.546875 L 6.515625 -15.546875 C 6.484375 -15.546875 6.460938 -15.546875 6.453125 -15.546875 L 6.453125 -1.734375 C 6.460938 -1.148438 6.710938 -0.710938 7.203125 -0.421875 C 7.441406 -0.296875 7.695312 -0.234375 7.96875 -0.234375 L 8.265625 -0.234375 L 8.265625 0 L 1.0625 0 L 1.0625 -0.234375 L 1.375 -0.234375 C 1.945312 -0.234375 2.378906 -0.476562 2.671875 -0.96875 C 2.804688 -1.1875 2.878906 -1.429688 2.890625 -1.703125 L 2.890625 -14.859375 C 2.878906 -15.273438 2.722656 -15.628906 2.421875 -15.921875 C 2.128906 -16.210938 1.78125 -16.359375 1.375 -16.359375 L 1.0625 -16.359375 L 1.0625 -16.59375 L 9.203125 -16.59375 C 10.734375 -16.59375 12.023438 -16.257812 13.078125 -15.59375 C 13.617188 -15.257812 14.046875 -14.796875 14.359375 -14.203125 C 14.679688 -13.617188 14.84375 -12.945312 14.84375 -12.1875 C 14.84375 -11.4375 14.710938 -10.742188 14.453125 -10.109375 C 14.191406 -9.484375 13.753906 -8.929688 13.140625 -8.453125 C 12.535156 -7.984375 11.804688 -7.703125 10.953125 -7.609375 C 11.867188 -7.304688 12.675781 -6.609375 13.375 -5.515625 C 15.070312 -2.785156 16.332031 -1.160156 17.15625 -0.640625 C 17.570312 -0.390625 18.085938 -0.253906 18.703125 -0.234375 L 18.703125 0 L 16.375 0 C 15.03125 0 13.90625 -0.179688 13 -0.546875 C 12.101562 -0.921875 11.375 -1.5625 10.8125 -2.46875 C 10.519531 -2.925781 10.148438 -3.613281 9.703125 -4.53125 C 9.265625 -5.457031 8.976562 -6.117188 8.84375 -6.515625 C 8.414062 -7.460938 7.878906 -7.992188 7.234375 -8.109375 L 7.234375 -8.34375 L 7.96875 -8.34375 C 8.675781 -8.34375 9.300781 -8.554688 9.84375 -8.984375 C 10.394531 -9.410156 10.765625 -10.101562 10.953125 -11.0625 C 11.015625 -11.394531 11.046875 -11.65625 11.046875 -11.84375 C 11.046875 -13.144531 10.785156 -14.082031 10.265625 -14.65625 C 9.742188 -15.238281 9.070312 -15.535156 8.25 -15.546875 C 8.09375 -15.546875 7.851562 -15.546875 7.53125 -15.546875 Z M 7.53125 -15.546875 "/></g></g></g><g fill="#000000" fill-opacity="1"><g transform="translate(101.97332, 26.463291)"><g><path d="M 10.421875 -16.921875 C 13.347656 -16.921875 15.671875 -16.144531 17.390625 -14.59375 C 19.117188 -13.050781 19.984375 -10.953125 19.984375 -8.296875 C 19.984375 -5.640625 19.117188 -3.535156 17.390625 -1.984375 C 15.671875 -0.441406 13.347656 0.328125 10.421875 0.328125 C 7.503906 0.328125 5.179688 -0.441406 3.453125 -1.984375 C 1.734375 -3.535156 0.875 -5.640625 0.875 -8.296875 C 0.875 -10.046875 1.265625 -11.570312 2.046875 -12.875 C 2.828125 -14.1875 3.9375 -15.1875 5.375 -15.875 C 6.8125 -16.570312 8.492188 -16.921875 10.421875 -16.921875 Z M 6.296875 -2.703125 C 7.316406 -1.335938 8.691406 -0.65625 10.421875 -0.65625 C 12.160156 -0.65625 13.539062 -1.335938 14.5625 -2.703125 C 15.582031 -4.078125 16.09375 -5.941406 16.09375 -8.296875 C 16.09375 -9.847656 15.863281 -11.195312 15.40625 -12.34375 C 14.945312 -13.5 14.289062 -14.382812 13.4375 -15 C 12.582031 -15.613281 11.578125 -15.921875 10.421875 -15.921875 C 8.691406 -15.921875 7.316406 -15.238281 6.296875 -13.875 C 5.273438 -12.507812 4.765625 -10.648438 4.765625 -8.296875 C 4.765625 -5.941406 5.273438 -4.078125 6.296875 -2.703125 Z M 6.296875 -2.703125 "/></g></g></g><g fill="#000000" fill-opacity="1"><g transform="translate(122.812089, 26.463291)"><g><path d="M 19.359375 -16.359375 C 18.960938 -16.359375 18.625 -16.21875 18.34375 -15.9375 C 18.0625 -15.664062 17.910156 -15.332031 17.890625 -14.9375 L 17.890625 -2.703125 C 17.890625 -1.640625 17.960938 -0.75 18.109375 -0.03125 L 18.1875 0.328125 L 17.96875 0.328125 L 6 -11.0625 L 6 -1.65625 C 6 -1.257812 6.140625 -0.921875 6.421875 -0.640625 C 6.703125 -0.367188 7.039062 -0.234375 7.4375 -0.234375 L 7.890625 -0.234375 L 7.890625 0 L 0.71875 0 L 0.71875 -0.234375 L 1.140625 -0.234375 C 1.546875 -0.234375 1.890625 -0.367188 2.171875 -0.640625 C 2.460938 -0.921875 2.609375 -1.269531 2.609375 -1.6875 L 2.609375 -13.984375 C 2.609375 -15.023438 2.535156 -15.894531 2.390625 -16.59375 L 2.34375 -16.953125 L 2.5625 -16.953125 L 14.53125 -5.546875 L 14.53125 -14.90625 C 14.507812 -15.320312 14.359375 -15.664062 14.078125 -15.9375 C 13.796875 -16.21875 13.457031 -16.359375 13.0625 -16.359375 L 12.640625 -16.359375 L 12.640625 -16.59375 L 19.8125 -16.59375 L 19.8125 -16.359375 Z M 19.359375 -16.359375 "/></g></g></g><g fill="#000000" fill-opacity="1"><g transform="translate(143.318956, 26.463291)"><g><path d="M 10.421875 -16.921875 C 13.347656 -16.921875 15.671875 -16.144531 17.390625 -14.59375 C 19.117188 -13.050781 19.984375 -10.953125 19.984375 -8.296875 C 19.984375 -5.640625 19.117188 -3.535156 17.390625 -1.984375 C 15.671875 -0.441406 13.347656 0.328125 10.421875 0.328125 C 7.503906 0.328125 5.179688 -0.441406 3.453125 -1.984375 C 1.734375 -3.535156 0.875 -5.640625 0.875 -8.296875 C 0.875 -10.046875 1.265625 -11.570312 2.046875 -12.875 C 2.828125 -14.1875 3.9375 -15.1875 5.375 -15.875 C 6.8125 -16.570312 8.492188 -16.921875 10.421875 -16.921875 Z M 6.296875 -2.703125 C 7.316406 -1.335938 8.691406 -0.65625 10.421875 -0.65625 C 12.160156 -0.65625 13.539062 -1.335938 14.5625 -2.703125 C 15.582031 -4.078125 16.09375 -5.941406 16.09375 -8.296875 C 16.09375 -9.847656 15.863281 -11.195312 15.40625 -12.34375 C 14.945312 -13.5 14.289062 -14.382812 13.4375 -15 C 12.582031 -15.613281 11.578125 -15.921875 10.421875 -15.921875 C 8.691406 -15.921875 7.316406 -15.238281 6.296875 -13.875 C 5.273438 -12.507812 4.765625 -10.648438 4.765625 -8.296875 C 4.765625 -5.941406 5.273438 -4.078125 6.296875 -2.703125 Z M 6.296875 -2.703125 "/></g></g></g><g fill="#000000" fill-opacity="1"><g transform="translate(164.157725, 26.463291)"><g><path d="M 22.453125 -0.234375 L 22.828125 -0.234375 L 22.828125 0 L 15.71875 0 L 15.71875 -0.21875 L 16.078125 -0.21875 C 16.335938 -0.21875 16.5625 -0.320312 16.75 -0.53125 C 16.945312 -0.75 17.03125 -0.984375 17 -1.234375 L 16.078125 -9.84375 L 11.609375 -2.15625 C 11.023438 -1.175781 10.726562 -0.300781 10.71875 0.46875 L 10.484375 0.46875 L 4.390625 -9.765625 L 3.453125 -1.234375 C 3.421875 -0.984375 3.5 -0.75 3.6875 -0.53125 C 3.882812 -0.320312 4.117188 -0.21875 4.390625 -0.21875 L 4.734375 -0.21875 L 4.734375 0 L -0.21875 0 L -0.21875 -0.234375 L 0.171875 -0.234375 C 0.609375 -0.234375 0.988281 -0.367188 1.3125 -0.640625 C 1.632812 -0.910156 1.828125 -1.273438 1.890625 -1.734375 L 3.859375 -16.921875 L 4.078125 -16.921875 L 11.421875 -4.828125 L 18.484375 -16.921875 L 18.703125 -16.921875 L 20.71875 -1.734375 C 20.789062 -1.273438 20.988281 -0.910156 21.3125 -0.640625 C 21.644531 -0.367188 22.023438 -0.234375 22.453125 -0.234375 Z M 22.453125 -0.234375 "/></g></g></g><g fill="#000000" fill-opacity="1"><g transform="translate(186.750843, 26.463291)"><g><path d="M 17.421875 -16.359375 L 17.09375 -16.359375 C 16.625 -16.359375 16.175781 -16.222656 15.75 -15.953125 C 15.320312 -15.679688 14.984375 -15.359375 14.734375 -14.984375 L 10.0625 -7.53125 L 10.0625 -1.734375 C 10.0625 -1.316406 10.207031 -0.960938 10.5 -0.671875 C 10.800781 -0.378906 11.160156 -0.234375 11.578125 -0.234375 L 11.859375 -0.234375 L 11.875 0 L 4.671875 0 L 4.671875 -0.234375 L 4.984375 -0.234375 C 5.390625 -0.234375 5.738281 -0.375 6.03125 -0.65625 C 6.332031 -0.945312 6.488281 -1.296875 6.5 -1.703125 L 6.5 -7.5625 L 1.96875 -15 C 1.738281 -15.382812 1.40625 -15.707031 0.96875 -15.96875 C 0.53125 -16.226562 0.0820312 -16.359375 -0.375 -16.359375 L -0.703125 -16.359375 L -0.703125 -16.59375 L 7.140625 -16.59375 L 7.140625 -16.359375 L 6.828125 -16.359375 C 6.484375 -16.359375 6.21875 -16.195312 6.03125 -15.875 C 5.9375 -15.707031 5.890625 -15.539062 5.890625 -15.375 C 5.890625 -15.207031 5.925781 -15.046875 6 -14.890625 L 9.390625 -8.71875 L 12.90625 -14.890625 C 13 -15.046875 13.046875 -15.207031 13.046875 -15.375 C 13.046875 -15.539062 12.988281 -15.703125 12.875 -15.859375 C 12.6875 -16.191406 12.421875 -16.359375 12.078125 -16.359375 L 11.78125 -16.359375 L 11.78125 -16.59375 L 17.421875 -16.59375 Z M 17.421875 -16.359375 "/></g></g></g></svg>