<svg width="136" height="24" viewBox="0 0 136 24" fill="none" xmlns="http://www.w3.org/2000/svg">
<path d="M10.065 12.493L3.885 13.811C3.64512 13.8631 3.39438 13.8186 3.18703 13.6873C2.97968 13.5559 2.83238 13.3482 2.777 13.109L2.24 10.959C2.17686 10.7 2.21271 10.4267 2.34053 10.1927C2.46835 9.95873 2.67892 9.78089 2.931 9.69403L16.435 5.25403" stroke="#B4637A" stroke-width="2.5" stroke-linecap="round" stroke-linejoin="round"/>
<path d="M13.56 11.747L17.892 10.823" stroke="#B4637A" stroke-width="2.5" stroke-linecap="round" stroke-linejoin="round"/>
<path d="M16 21L12.895 14.79" stroke="#B4637A" stroke-width="2.5" stroke-linecap="round" stroke-linejoin="round"/>
<path d="M16.485 5.93999C16.3565 5.42548 16.4375 4.88097 16.7104 4.42622C16.9832 3.97146 17.4255 3.64369 17.94 3.51499L19.03 3.24299C19.2871 3.17885 19.5592 3.21939 19.7864 3.3557C20.0137 3.49202 20.1775 3.71296 20.242 3.96999L21.757 10.03C21.8214 10.2873 21.7811 10.5596 21.6447 10.7871C21.5084 11.0145 21.2873 11.1785 21.03 11.243L19.94 11.515C19.4255 11.6435 18.881 11.5625 18.4262 11.2896C17.9715 11.0168 17.6437 10.5745 17.515 10.06L16.485 5.93999Z" stroke="#B4637A" stroke-width="2.5" stroke-linecap="round" stroke-linejoin="round"/>
<path d="M6.158 8.63306L7.272 13.0891" stroke="#B4637A" stroke-width="2.5" stroke-linecap="round" stroke-linejoin="round"/>
<path d="M8 21L11.105 14.79" stroke="#B4637A" stroke-width="2.5" stroke-linecap="round" stroke-linejoin="round"/>
<path d="M12 15C13.1046 15 14 14.1046 14 13C14 11.8954 13.1046 11 12 11C10.8954 11 10 11.8954 10 13C10 14.1046 10.8954 15 12 15Z" stroke="#B4637A" stroke-width="2.5" stroke-linecap="round" stroke-linejoin="round"/>
<path d="M31.7713 19H28.4759L33.4972 4.45455H37.4602L42.4744 19H39.179L35.5355 7.77841H35.4219L31.7713 19ZM31.5653 13.2827H39.3494V15.6832H31.5653V13.2827ZM52.9911 11.2017L50.2212 11.3722C50.1739 11.1354 50.0721 10.9223 49.9158 10.733C49.7596 10.5388 49.5536 10.3849 49.2979 10.2713C49.047 10.1529 48.7463 10.0938 48.396 10.0938C47.9272 10.0938 47.5318 10.1932 47.2099 10.392C46.8879 10.5862 46.7269 10.8466 46.7269 11.1733C46.7269 11.4337 46.8311 11.6539 47.0394 11.8338C47.2478 12.0137 47.6052 12.1581 48.1119 12.267L50.0863 12.6648C51.1469 12.8826 51.9376 13.233 52.4585 13.7159C52.9793 14.1989 53.2397 14.8333 53.2397 15.6193C53.2397 16.3343 53.029 16.9616 52.6076 17.5014C52.1909 18.0412 51.618 18.4626 50.8888 18.7656C50.1644 19.0639 49.3287 19.2131 48.3817 19.2131C46.9376 19.2131 45.7871 18.9124 44.93 18.3111C44.0778 17.705 43.5782 16.8812 43.4315 15.8395L46.4073 15.6832C46.4973 16.1236 46.7151 16.4598 47.0607 16.6918C47.4064 16.919 47.8491 17.0327 48.3888 17.0327C48.9192 17.0327 49.3453 16.9309 49.6673 16.7273C49.994 16.5189 50.1597 16.2514 50.1644 15.9247C50.1597 15.6501 50.0437 15.4252 49.8164 15.25C49.5891 15.0701 49.2388 14.9328 48.7653 14.8381L46.8761 14.4616C45.8107 14.2486 45.0176 13.8793 44.4968 13.3537C43.9807 12.8281 43.7227 12.1581 43.7227 11.3438C43.7227 10.643 43.9121 10.0393 44.2908 9.53267C44.6744 9.02604 45.2118 8.63542 45.9031 8.3608C46.5991 8.08617 47.4135 7.94886 48.3462 7.94886C49.7241 7.94886 50.8084 8.24006 51.5991 8.82244C52.3945 9.40483 52.8585 10.1979 52.9911 11.2017ZM60.9474 8.09091V10.3636H54.3778V8.09091H60.9474ZM55.8693 5.47727H58.8949V15.6477C58.8949 15.9271 58.9375 16.1449 59.0227 16.3011C59.108 16.4527 59.2263 16.5592 59.3778 16.6207C59.5341 16.6823 59.714 16.7131 59.9176 16.7131C60.0597 16.7131 60.2017 16.7012 60.3438 16.6776C60.4858 16.6491 60.5947 16.6278 60.6705 16.6136L61.1463 18.8651C60.9948 18.9124 60.7817 18.9669 60.5071 19.0284C60.2325 19.0947 59.8987 19.1349 59.5057 19.1491C58.7765 19.1776 58.1373 19.0805 57.5881 18.858C57.0436 18.6354 56.6198 18.2898 56.3168 17.821C56.0137 17.3523 55.8646 16.7604 55.8693 16.0455V5.47727ZM62.9183 19V8.09091H65.8516V9.99432H65.9652C66.1641 9.31723 66.4979 8.80587 66.9666 8.46023C67.4354 8.10985 67.9751 7.93466 68.5859 7.93466C68.7375 7.93466 68.9008 7.94413 69.076 7.96307C69.2512 7.98201 69.4051 8.00805 69.5376 8.04119V10.7259C69.3956 10.6832 69.1991 10.6454 68.9482 10.6122C68.6972 10.5791 68.4676 10.5625 68.2592 10.5625C67.8142 10.5625 67.4164 10.6596 67.0661 10.8537C66.7204 11.0431 66.4458 11.3082 66.2422 11.6491C66.0433 11.9901 65.9439 12.383 65.9439 12.8281V19H62.9183ZM75.5231 19.2131C74.4199 19.2131 73.4658 18.9787 72.6609 18.5099C71.8607 18.0365 71.2428 17.3783 70.8072 16.5355C70.3716 15.688 70.1538 14.7055 70.1538 13.5881C70.1538 12.4612 70.3716 11.4763 70.8072 10.6335C71.2428 9.78598 71.8607 9.12784 72.6609 8.65909C73.4658 8.18561 74.4199 7.94886 75.5231 7.94886C76.6263 7.94886 77.578 8.18561 78.3782 8.65909C79.1831 9.12784 79.8034 9.78598 80.239 10.6335C80.6746 11.4763 80.8924 12.4612 80.8924 13.5881C80.8924 14.7055 80.6746 15.688 80.239 16.5355C79.8034 17.3783 79.1831 18.0365 78.3782 18.5099C77.578 18.9787 76.6263 19.2131 75.5231 19.2131ZM75.5373 16.8693C76.0392 16.8693 76.4582 16.7273 76.7944 16.4432C77.1306 16.1544 77.3839 15.7614 77.5543 15.2642C77.7295 14.767 77.8171 14.2012 77.8171 13.5668C77.8171 12.9323 77.7295 12.3665 77.5543 11.8693C77.3839 11.3722 77.1306 10.9792 76.7944 10.6903C76.4582 10.4015 76.0392 10.2571 75.5373 10.2571C75.0307 10.2571 74.6045 10.4015 74.2589 10.6903C73.918 10.9792 73.6599 11.3722 73.4847 11.8693C73.3143 12.3665 73.229 12.9323 73.229 13.5668C73.229 14.2012 73.3143 14.767 73.4847 15.2642C73.6599 15.7614 73.918 16.1544 74.2589 16.4432C74.6045 16.7273 75.0307 16.8693 75.5373 16.8693ZM85.8853 12.6932V19H82.8597V8.09091H85.7433V10.0156H85.8711C86.1126 9.38116 86.5174 8.87926 87.0856 8.50994C87.6538 8.13589 88.3427 7.94886 89.1523 7.94886C89.9099 7.94886 90.5704 8.11458 91.1339 8.44602C91.6973 8.77746 92.1353 9.25095 92.4478 9.86648C92.7603 10.4773 92.9165 11.2064 92.9165 12.054V19H89.891V12.5938C89.8957 11.9261 89.7253 11.4053 89.3796 11.0312C89.034 10.6525 88.5581 10.4631 87.9521 10.4631C87.5449 10.4631 87.185 10.5507 86.8725 10.7259C86.5647 10.901 86.3233 11.1567 86.1481 11.4929C85.9776 11.8243 85.89 12.2244 85.8853 12.6932ZM100.23 19.2131C99.1269 19.2131 98.1728 18.9787 97.3679 18.5099C96.5677 18.0365 95.9498 17.3783 95.5142 16.5355C95.0786 15.688 94.8608 14.7055 94.8608 13.5881C94.8608 12.4612 95.0786 11.4763 95.5142 10.6335C95.9498 9.78598 96.5677 9.12784 97.3679 8.65909C98.1728 8.18561 99.1269 7.94886 100.23 7.94886C101.333 7.94886 102.285 8.18561 103.085 8.65909C103.89 9.12784 104.51 9.78598 104.946 10.6335C105.382 11.4763 105.599 12.4612 105.599 13.5881C105.599 14.7055 105.382 15.688 104.946 16.5355C104.51 17.3783 103.89 18.0365 103.085 18.5099C102.285 18.9787 101.333 19.2131 100.23 19.2131ZM100.244 16.8693C100.746 16.8693 101.165 16.7273 101.501 16.4432C101.838 16.1544 102.091 15.7614 102.261 15.2642C102.437 14.767 102.524 14.2012 102.524 13.5668C102.524 12.9323 102.437 12.3665 102.261 11.8693C102.091 11.3722 101.838 10.9792 101.501 10.6903C101.165 10.4015 100.746 10.2571 100.244 10.2571C99.7377 10.2571 99.3116 10.4015 98.9659 10.6903C98.625 10.9792 98.367 11.3722 98.1918 11.8693C98.0213 12.3665 97.9361 12.9323 97.9361 13.5668C97.9361 14.2012 98.0213 14.767 98.1918 15.2642C98.367 15.7614 98.625 16.1544 98.9659 16.4432C99.3116 16.7273 99.7377 16.8693 100.244 16.8693ZM107.567 19V8.09091H110.45V10.0156H110.578C110.805 9.37642 111.184 8.87216 111.714 8.50284C112.245 8.13352 112.879 7.94886 113.618 7.94886C114.366 7.94886 115.003 8.13589 115.528 8.50994C116.054 8.87926 116.404 9.38116 116.58 10.0156H116.693C116.916 9.39062 117.318 8.8911 117.901 8.51705C118.488 8.13826 119.181 7.94886 119.982 7.94886C121 7.94886 121.826 8.2732 122.46 8.92188C123.099 9.56581 123.419 10.4796 123.419 11.6634V19H120.401V12.2599C120.401 11.6539 120.24 11.1993 119.918 10.8963C119.596 10.5933 119.193 10.4418 118.71 10.4418C118.161 10.4418 117.732 10.617 117.425 10.9673C117.117 11.313 116.963 11.7699 116.963 12.3381V19H114.03V12.196C114.03 11.661 113.876 11.2348 113.568 10.9176C113.265 10.6004 112.865 10.4418 112.368 10.4418C112.032 10.4418 111.729 10.527 111.459 10.6974C111.194 10.8632 110.983 11.0975 110.827 11.4006C110.67 11.6989 110.592 12.0492 110.592 12.4517V19H107.567ZM127.286 23.0909C126.903 23.0909 126.543 23.0601 126.207 22.9986C125.875 22.9418 125.601 22.8684 125.383 22.7784L126.065 20.5199C126.42 20.6288 126.739 20.688 127.023 20.6974C127.312 20.7069 127.561 20.6406 127.769 20.4986C127.982 20.3565 128.155 20.1151 128.288 19.7741L128.465 19.3125L124.552 8.09091H127.734L129.992 16.1023H130.106L132.386 8.09091H135.589L131.349 20.179C131.145 20.7661 130.868 21.2775 130.518 21.7131C130.172 22.1534 129.734 22.492 129.204 22.7287C128.674 22.9702 128.034 23.0909 127.286 23.0909Z" fill="#B4637A"/>
</svg>
