<svg width="24" height="24" viewBox="0 0 24 24" fill="none" xmlns="http://www.w3.org/2000/svg">
<path d="M9.1786 12.7519L3.53371 13.9787C3.42416 14.0035 3.31156 14.0067 3.20201 13.988C3.09246 13.9663 2.989 13.9259 2.89466 13.8638C2.80033 13.8048 2.72121 13.7271 2.65426 13.634C2.59036 13.5408 2.54471 13.4383 2.52037 13.3265L2.03043 11.3202C1.96957 11.0686 2 10.8326 2.12172 10.6058C2.24345 10.3791 2.42299 10.2238 2.66035 10.14L15 6" stroke="black" stroke-width="2" stroke-linecap="square" stroke-linejoin="round"/>
<path d="M14 12L17 11" stroke="black" stroke-width="2" stroke-linecap="round" stroke-linejoin="round"/>
<path d="M14.0194 20.1961C14.1277 20.7377 14.6546 21.0889 15.1961 20.9806C15.7377 20.8723 16.0889 20.3454 15.9806 19.8039L14.0194 20.1961ZM14.9806 14.8039L14.7845 13.8233L12.8233 14.2155L13.0194 15.1961L14.9806 14.8039ZM15.9806 19.8039L14.9806 14.8039L13.0194 15.1961L14.0194 20.1961L15.9806 19.8039Z" fill="black"/>
<path d="M16.0553 6.61033C15.9963 6.36502 15.9839 6.11654 16.0211 5.86486C16.0584 5.61319 16.1391 5.38063 16.2664 5.16081C16.3938 4.94418 16.5552 4.75941 16.754 4.60967C16.9527 4.45676 17.1732 4.35163 17.4123 4.2911L18.4277 4.02987C18.5488 3.99801 18.6699 3.99164 18.791 4.01075C18.9152 4.02987 19.0301 4.07128 19.1357 4.13818C19.2413 4.2019 19.3313 4.28473 19.4027 4.38667C19.4773 4.48861 19.5301 4.6033 19.558 4.72436L20.9709 10.5224C21.0019 10.6467 21.0082 10.7709 20.9895 10.8952C20.9709 11.0194 20.9305 11.1373 20.8684 11.2456C20.8032 11.3571 20.7225 11.4463 20.6231 11.5228C20.5237 11.5992 20.415 11.6534 20.2939 11.6821L19.2785 11.9433C19.0394 12.0038 18.7972 12.0166 18.5519 11.9783C18.3066 11.9433 18.0768 11.8573 17.8656 11.7266C17.6545 11.596 17.4744 11.4304 17.3284 11.2265C17.1794 11.0226 17.0769 10.7964 17.0179 10.5511L16.0553 6.61033Z" stroke="black" stroke-width="2" stroke-linecap="round" stroke-linejoin="round"/>
<path d="M6 9L7 13" stroke="black" stroke-width="2" stroke-linecap="round" stroke-linejoin="round"/>
<path d="M7.07152 19.6286C6.86641 20.1414 7.11583 20.7234 7.62861 20.9285C8.14139 21.1336 8.72336 20.8842 8.92848 20.3714L7.07152 19.6286ZM10.9285 15.3714L11.2999 14.4429L9.44291 13.7001L9.07152 14.6286L10.9285 15.3714ZM8.92848 20.3714L10.9285 15.3714L9.07152 14.6286L7.07152 19.6286L8.92848 20.3714Z" fill="black"/>
<path d="M14 13.0017C14 13.2681 13.95 13.5212 13.8468 13.7677C13.7469 14.0108 13.6003 14.2273 13.4138 14.4172C13.2273 14.6037 13.0108 14.7469 12.7644 14.8501C12.5212 14.95 12.2648 15 11.9983 15C11.7352 15 11.4788 14.95 11.2356 14.8501C10.9892 14.7469 10.7727 14.6037 10.5862 14.4172C10.3963 14.2273 10.2531 14.0108 10.1532 13.7677C10.05 13.5212 10 13.2681 10 13.0017C10 12.7352 10.05 12.4821 10.1532 12.2356C10.2531 11.9892 10.3963 11.776 10.5862 11.5862C10.7727 11.3997 10.9892 11.2565 11.2356 11.1532C11.4788 11.0533 11.7352 11 11.9983 11C12.2648 11 12.5212 11.0533 12.7644 11.1532C13.0108 11.2565 13.2273 11.3997 13.4138 11.5862C13.6003 11.776 13.7469 11.9892 13.8468 12.2356C13.95 12.4821 14 12.7352 14 13.0017Z" stroke="black" stroke-width="2" stroke-linecap="round" stroke-linejoin="round"/>
</svg>
